<?xml version="1.0" encoding="utf-8"?>
<svg width="140px" height="40px" viewBox="0 0 140 40" version="1.1" xmlns:xlink="http://www.w3.org/1999/xlink" xmlns="http://www.w3.org/2000/svg">
  <g id="navbar_brand">
    <g id="ohidur" fill="#5993FF" transform="translate(14 7.5)">
      <path d="M3.75 18.7529L3.75 9.37793L13.125 9.37793L13.125 18.7529L3.75 18.7529ZM22.5 18.7529L22.5 9.37793L24.375 9.37793L24.375 13.1279L30 13.1279L30 9.37793L31.875 9.37793L31.875 18.7529L30 18.7529L30 15.0029L24.375 15.0029L24.375 18.7529L22.5 18.7529ZM45 9.37793L45 18.7529L46.875 18.7529L46.875 9.37793L45 9.37793ZM69.375 16.8779L67.5 18.7529L60 18.7529L60 9.37793L67.5 9.37793L69.375 11.2529L69.375 16.8779ZM78.75 9.37793L78.75 18.7529L88.125 18.7529L88.125 9.37793L86.25 9.37793L86.25 16.8779L80.625 16.8779L80.625 9.37793L78.75 9.37793ZM106.875 18.7529L104.561 18.7529L101.25 15.0029L99.375 15.0029L99.375 18.7529L97.5 18.7529L97.5 9.37793L106.875 9.37793L106.875 15.0029L103.564 15.0029L106.875 18.7529ZM11.25 16.8779L11.25 11.2529L5.625 11.2529L5.625 16.8779L11.25 16.8779ZM66.5625 11.2529L61.875 11.2529L61.875 16.8779L66.5625 16.8779L67.5 15.9404L67.5 12.2783L66.5625 11.2529ZM105 13.1279L105 11.2529L99.375 11.2529L99.375 13.1279L105 13.1279Z" />
    </g>
  </g>
</svg>